<svg xmlns="http://www.w3.org/2000/svg" viewBox="0 0 255 52">
  <defs>
    <clipPath id="logo-icon-clip">
      <rect x="0" y="3" width="46" height="46" rx="9"/>
    </clipPath>
  </defs>

  <!-- Icon background -->
  <rect x="0" y="3" width="46" height="46" rx="9" fill="#2e3438"/>

  <!-- Net mesh pattern inside icon -->
  <g clip-path="url(#logo-icon-clip)" stroke="#6b7a85" stroke-width="1" opacity="0.45" fill="none">
    <line x1="-3" y1="3"  x2="49" y2="49"/>
    <line x1="-3" y1="13" x2="49" y2="59"/>
    <line x1="-3" y1="-7" x2="49" y2="39"/>
    <line x1="7"  y1="-7" x2="59" y2="39"/>
    <line x1="49" y1="3"  x2="-3" y2="49"/>
    <line x1="49" y1="13" x2="-3" y2="59"/>
    <line x1="49" y1="-7" x2="-3" y2="39"/>
    <line x1="39" y1="-7" x2="-13" y2="39"/>
    <line x1="13" y1="-7" x2="65"  y2="39"/>
  </g>

  <!-- Flying bird -->
  <g transform="translate(23,26)" fill="white">
    <path d="M0,-3.5 C-4,-10 -13,-7 -16,-2 C-10,-5 -4.5,-3 0,2.5 C4.5,-3 10,-5 16,-2 C13,-7 4,-10 0,-3.5Z"/>
    <path d="M-2.5,2.5 L0,9.5 L2.5,2.5 Q0,5.5 -2.5,2.5Z" opacity="0.72"/>
  </g>

  <!-- Brand name -->
  <text x="58" y="22"
        font-family="Inter,-apple-system,BlinkMacSystemFont,'Segoe UI',Arial,sans-serif"
        font-size="20" font-weight="700" fill="#2e3438" letter-spacing="-0.3">SK Bird Net</text>

  <!-- Sub-line -->
  <text x="59" y="41"
        font-family="Inter,-apple-system,BlinkMacSystemFont,'Segoe UI',Arial,sans-serif"
        font-size="13" font-weight="500" fill="#6b7a85" letter-spacing="0.4">&amp; Service · Surat</text>
</svg>
